<svg width="512" height="512" viewBox="0 0 512 512" fill="none" xmlns="http://www.w3.org/2000/svg">
<path d="M0 110C0 49.2487 49.2487 0 110 0H402C462.751 0 512 49.2487 512 110V402C512 462.751 462.751 512 402 512H110C49.2487 512 0 462.751 0 402V110Z" fill="url(#paint0_linear_1_73)"/>
<path d="M133 339.27V172H186.568V190.662H155.637V320.608H186.568V339.27H133Z" fill="white"/>
<path d="M325.524 339.27V320.608H356.455V190.662H325.524V172H379.264V339.27H325.524Z" fill="white"/>
<path fill-rule="evenodd" clip-rule="evenodd" d="M319.943 157.15C321.273 131.765 312.465 106.891 295.455 88L224.228 152.134C214.874 160.556 207.271 170.738 201.852 182.099C196.433 193.459 193.305 205.776 192.646 218.345C191.988 230.915 193.811 243.491 198.013 255.356C202.214 267.22 208.712 278.141 217.134 287.495L288.361 223.362C307.252 206.352 318.612 182.535 319.943 157.15Z" fill="white"/>
<path fill-rule="evenodd" clip-rule="evenodd" d="M320.119 294.213C321.45 268.828 312.641 243.954 295.632 225.063L224.404 289.197C215.05 297.619 207.447 307.801 202.028 319.162C196.61 330.522 193.482 342.839 192.823 355.408C192.164 367.978 193.988 380.554 198.189 392.419C202.391 404.284 208.888 415.205 217.31 424.558L288.538 360.425C307.429 343.415 318.789 319.598 320.119 294.213Z" fill="white"/>
<defs>
<linearGradient id="paint0_linear_1_73" x1="0" y1="0" x2="512" y2="512" gradientUnits="userSpaceOnUse">
<stop stop-color="#FFD6FC"/>
<stop offset="0.516841" stop-color="#D7CAFD"/>
<stop offset="1" stop-color="#B1BFFF"/>
</linearGradient>
</defs>
</svg>
